<?xml version="1.0" encoding="UTF-8"?>
<svg id="Layer_1" xmlns="http://www.w3.org/2000/svg" xmlns:x="ns_extend;" version="1.1" viewBox="0 0 111.9 65">
  <!-- Generator: Adobe Illustrator 30.3.0, SVG Export Plug-In . SVG Version: 2.1.3 Build 182)  -->
  <defs>
    <style>
      .st0 {
        fill: #2f313f;
        fill-rule: evenodd;
      }
    </style>
  </defs>
  <path class="st0" d="M30.4,23c4.4-7.1,2.2-16.4-4.8-20.8-2.4-1.4-5.1-2.2-7.9-2.2H0v48.9h19.9c8.3,0,15-6.8,15-15.1s-1.6-7.9-4.5-10.8ZM11.4,11.5h6.3c2,0,3.6,1.6,3.6,3.6s-1.6,3.6-3.6,3.6h-6.3s0-7.2,0-7.2ZM19.9,37.4h-8.5v-7.2h8.5c2,0,3.6,1.6,3.6,3.6s-1.6,3.6-3.6,3.6ZM90,0v48.9h-11.4V2.4l11.4-2.4ZM56.8,13.9c-9.7,0-17.6,7.9-17.6,17.7s7.9,17.7,17.6,17.7,17.6-7.9,17.6-17.7c0-9.8-7.9-17.7-17.6-17.7ZM56.8,37.4c-3.2,0-5.7-2.6-5.7-5.7s2.5-5.7,5.7-5.7,5.7,2.6,5.7,5.7-2.6,5.7-5.7,5.7ZM62.5,59.3c0,3.2-2.6,5.7-5.7,5.7s-5.7-2.6-5.7-5.7,2.6-5.7,5.7-5.7c3.1,0,5.7,2.5,5.7,5.7ZM111.8,14.5v11.5h-5.7v9c0,2.7.9,4.7,3.2,4.7s1.7,0,2.5-.3v8.5c-1.7.9-3.6,1.4-5.6,1.4h-.8c-6.3-.3-10.7-4.3-10.7-11.4h0V8.2l11.4-2.4v8.8h5.7Z"/>
</svg>