<?xml version="1.0" encoding="UTF-8"?>
<svg id="Logo" xmlns="http://www.w3.org/2000/svg" version="1.1" viewBox="0 0 96.1 17.8">
  <!-- Generator: Adobe Illustrator 30.3.0, SVG Export Plug-In . SVG Version: 2.1.3 Build 182)  -->
  <defs>
    <style>
      .st0 {
        fill: #fff;
      }
    </style>
  </defs>
  <path id="Tracé_1" class="st0" d="M3.9,6.1h5.9c.1,0,.2-.1.2-.2V.8c0-.3.2-.5.5-.5h2.6c.3,0,.5.2.5.5v14.2c0,.3-.2.5-.5.5h-2.6c-.3,0-.5-.2-.5-.5v-5.2c0-.1-.1-.2-.2-.2H3.9c-.1,0-.2.1-.2.2v5.2c0,.3-.2.5-.5.5H.5c-.3,0-.5-.2-.5-.5V.8C0,.5.2.3.5.3h2.6c.3,0,.5.2.5.5v5.1c0,.1.1.3.2.3,0,0,0,0,0,0Z"/>
  <path id="Tracé_2" class="st0" d="M78.3,3.9l-2.3,1.3c-.2.1-.5,0-.6-.1-.8-1.1-2-1.7-3.4-1.6-2.3,0-4.2,1.8-4.2,4.1,0,.1,0,.2,0,.3-.2,2.3,1.5,4.2,3.8,4.4.1,0,.3,0,.4,0,1.3,0,2.6-.6,3.4-1.6.2-.2.5-.2.7,0l2.2,1.5c.2.2.3.5.1.7,0,0,0,0,0,0-1.5,1.9-3.8,3-6.3,2.9-4.2.2-7.8-3-8-7.2,0-.2,0-.4,0-.6C64.2,3.4,67.8,0,72.3,0c2.5,0,4.8,1.2,6.2,3.2.2.2,0,.5-.1.7,0,0,0,0,0,0Z"/>
  <path id="Tracé_3" class="st0" d="M61.7,3.6h-3.7c-.1,0-.2.1-.2.2v11.1c0,.3-.2.5-.5.5h-2.6c-.3,0-.5-.2-.5-.5V3.9c0-.1-.1-.2-.2-.2h-3.7c-.3,0-.5-.2-.5-.5V.8c0-.3.2-.5.5-.5h11.6c.3,0,.5.2.5.5v2.4c0,.3-.2.5-.5.5Z"/>
  <path id="Tracé_4" class="st0" d="M29.5,15.4h-10.6c-.3,0-.5-.2-.5-.5V.8c0-.3.2-.5.5-.5h10.6c.3,0,.5.2.5.5v2.3c0,.3-.2.5-.5.5h-7.2c-.1,0-.2.1-.2.2v2.1c0,.1.1.2.2.2h6.7c.3,0,.5.2.5.5v2.3c0,.3-.2.5-.5.5h-6.7c-.1,0-.2.1-.2.2v2.3c0,.1.1.2.2.2h7.2c.3,0,.5.2.5.5v2.3c0,.3-.2.5-.5.5Z"/>
  <path id="Tracé_5" class="st0" d="M45.9,15.4h-10.6c-.3,0-.5-.2-.5-.5V.8c0-.3.2-.5.5-.5h10.6c.3,0,.5.2.5.5v2.3c0,.3-.2.5-.5.5h-7.2c-.1,0-.2.1-.2.2v2.1c0,.1.1.2.2.2h6.7c.3,0,.5.2.5.5v2.3c0,.3-.2.5-.5.5h-6.7c-.1,0-.2.1-.2.2v2.3c0,.1.1.2.2.2h7.2c.3,0,.5.2.5.5v2.3c0,.3-.2.5-.5.5Z"/>
  <path id="Tracé_6" class="st0" d="M85.9,6.1h5.9c.1,0,.2-.1.2-.2V.8c0-.3.2-.5.5-.5h2.6c.3,0,.5.2.5.5v8.2c0,.3-.2.5-.5.5h-9.2c-.1,0-.2.1-.2.2v5.2c0,.3-.2.5-.5.5h-2.6c-.3,0-.5-.2-.5-.5V.8c0-.3.2-.5.5-.5h2.6c.3,0,.5.2.5.5v5.1c0,.1.1.3.2.3,0,0,0,0,0,0Z"/>
  <path id="Tracé_7" class="st0" d="M96.1,15.4c0,1.3-1,2.3-2.3,2.3-1.3,0-2.3-1-2.3-2.3,0-1.3,1-2.3,2.3-2.3,0,0,0,0,0,0,1.3,0,2.3,1,2.3,2.3Z"/>
</svg>