<?xml version="1.0" encoding="UTF-8"?>
<svg id="Calque_2" xmlns="http://www.w3.org/2000/svg" version="1.1" viewBox="0 0 83.5 14.9">
  <!-- Generator: Adobe Illustrator 30.3.0, SVG Export Plug-In . SVG Version: 2.1.3 Build 182)  -->
  <defs>
    <style>
      .st0 {
        fill: #ff2346;
      }
    </style>
  </defs>
  <g id="Calque_1-2">
    <path class="st0" d="M33,7.8c.3-1.2,1.2-1.8,2.4-1.8s2,.7,2.2,1.8c0,0-4.6,0-4.6,0ZM29.7,9.1c0,3.5,2.5,5.9,6.2,5.9s3-.4,4.1-1.1v-2.9c-1,.8-2.3,1.3-3.8,1.3s-2.9-.7-3.2-2.1h7.8c0-.4,0-.9,0-1.4,0-3.2-2.3-5.4-5.4-5.4s-5.7,2.4-5.7,5.9h0ZM42.1,14.7v-6.4c0-3.7,2.4-5.1,5.2-5.1s5.2,1.4,5.2,5.1v6.4h-3.3v-6.4c0-1.5-.8-2.1-1.9-2.1s-1.9.6-1.9,2.1v6.4h-3.3ZM65.5,3.5h3.3l2,7.4,1.7-5.9c.4-1.3,1.1-1.7,1.9-1.7s1.5.4,1.9,1.7l1.7,5.9,2-7.4h3.3l-2.9,9.4c-.4,1.5-1.2,2.1-2.3,2.1s-1.9-.6-2.3-2.1l-1.5-4.9-1.5,4.9c-.4,1.5-1.2,2.1-2.3,2.1s-1.8-.6-2.3-2.1l-2.9-9.4h0ZM0,14.7V4.9C0,1.6,2.3,0,5,0s2.4.3,2.9.6v3.1c-.5-.3-1.3-.7-2.3-.7s-2.3.6-2.3,1.9v.2h4.7v2.9H3.3v6.6s-3.3,0-3.3,0ZM9.3,14.7V3.5h3.3v1.5c.8-1.2,1.8-1.6,3-1.6s1.1.1,1.4.2v3.1c-.4-.1-1-.3-1.9-.3s-2.5.7-2.5,2.6v5.9h-3.3ZM20.9,7.8c.3-1.2,1.2-1.8,2.4-1.8s2,.7,2.2,1.8h-4.6ZM17.5,9.1c0,3.5,2.5,5.9,6.2,5.9s3-.4,4.1-1.1v-2.9c-1,.8-2.3,1.3-3.8,1.3s-2.9-.7-3.2-2.1h7.8c0-.4,0-.9,0-1.4,0-3.2-2.3-5.4-5.4-5.4s-5.7,2.4-5.7,5.9h0ZM59.7,11.9c-1.6,0-2.6-1.2-2.6-2.9s1-2.9,2.6-2.9,2.6,1.2,2.6,2.9-1,2.9-2.6,2.9ZM59.7,14.9c3.3,0,5.9-2.6,5.9-5.9s-2.5-5.9-5.9-5.9-5.9,2.5-5.9,5.9,2.5,5.9,5.9,5.9Z"/>
  </g>
</svg>