<?xml version="1.0" encoding="UTF-8"?>
<svg id="Layer_1" xmlns="http://www.w3.org/2000/svg" version="1.1" viewBox="0 0 155.8 52.3">
  <!-- Generator: Adobe Illustrator 30.3.0, SVG Export Plug-In . SVG Version: 2.1.3 Build 182)  -->
  <path d="M7.7,31.8V0H0v32.2c0,12.1,8.5,20.1,19.5,20.1s10.1-2.1,13.6-5.7v4.8h7.6V0h-7.7v31.8c0,8.2-5.5,13.7-12.6,13.7-7.2,0-12.7-5.4-12.7-13.7ZM48.3,51.5h7.3v-4.7c3.4,3.5,8.2,5.6,13.4,5.6,11,0,19.7-8.7,19.7-19.6s-8.7-19.6-19.7-19.6-9.9,2.1-13.3,5.6V0h-7.4v51.5ZM55.6,32.8c0-7.3,5.8-13,12.9-13s12.9,5.7,12.9,13-5.8,13-12.9,13-12.9-5.8-12.9-13ZM93.1,32.7c0,11.2,8.7,19.6,19.9,19.6s12.4-3,16.2-8l-5.4-4c-2.8,3.7-6.5,5.5-10.8,5.5-6.3,0-11.4-4.6-12.4-10.7h30.5v-2.4c0-11.2-7.9-19.5-18.7-19.5-11,0-19.3,8.9-19.3,19.5ZM112.2,19.7c5.5,0,10.1,3.8,11.4,9.6h-22.9c1.4-5.8,6-9.6,11.5-9.6ZM155.8,20.6v-6.9h-2.6c-4.1,0-7.1,1.9-9,4.9v-4.6h-7.2v37.5h7.4v-21.4c0-5.8,3.5-9.6,8.4-9.6h3Z"/>
</svg>